<?xml version="1.0" encoding="UTF-8" standalone="no"?>
<!-- Created with Inkscape (http://www.inkscape.org/) -->

<svg
   version="1.1"
   id="svg2"
   width="6666.6665"
   height="5400"
   viewBox="0 0 6666.6665 5400"
   sodipodi:docname="24.eps"
   xmlns:inkscape="http://www.inkscape.org/namespaces/inkscape"
   xmlns:sodipodi="http://sodipodi.sourceforge.net/DTD/sodipodi-0.dtd"
   xmlns="http://www.w3.org/2000/svg"
   xmlns:svg="http://www.w3.org/2000/svg">
  <defs
     id="defs6" />
  <sodipodi:namedview
     id="namedview4"
     pagecolor="#ffffff"
     bordercolor="#000000"
     borderopacity="0.25"
     inkscape:showpageshadow="2"
     inkscape:pageopacity="0.0"
     inkscape:pagecheckerboard="0"
     inkscape:deskcolor="#d1d1d1" />
  <g
     id="g8"
     inkscape:groupmode="layer"
     inkscape:label="ink_ext_XXXXXX"
     transform="matrix(1.3333333,0,0,-1.3333333,0,5400)">
    <g
       id="g10"
       transform="scale(0.1)">
      <path
         d="m 32716.7,13587.1 c -13.1,32.1 -50,47.4 -81.5,34.3 -32,-13.1 -47.4,-49.5 -34.4,-81.5 l 262.9,-645.1 c 13.3,-32.8 50.4,-47.2 81.5,-34.4 32,13.1 47.4,49.5 34.4,81.5 l -262.9,645.2"
         style="fill:#000000;fill-opacity:1;fill-rule:nonzero;stroke:none"
         id="path12" />
      <path
         d="m 32649.6,12833.2 c -18.4,29.4 -57.2,38 -86.3,19.5 -29.2,-18.4 -38,-57 -19.5,-86.3 l 300.4,-475.8 c 18.4,-29 56.7,-38 86.4,-19.4 29.2,18.4 37.8,57.1 19.4,86.3 l -300.4,475.7"
         style="fill:#000000;fill-opacity:1;fill-rule:nonzero;stroke:none"
         id="path14" />
      <path
         d="m 34461.5,11535 c 205.7,135.9 359.9,351 423.1,589.9 8.8,33.4 -11.1,67.7 -44.5,76.5 -33.8,9.3 -67.5,-11.3 -76.5,-44.5 -55.3,-209.7 -190.6,-398.3 -371,-517.6 -28.8,-19 -36.8,-57.8 -17.7,-86.6 19.1,-29 58.2,-36.7 86.6,-17.7"
         style="fill:#000000;fill-opacity:1;fill-rule:nonzero;stroke:none"
         id="path16" />
      <path
         d="m 34857.2,13903.8 166.1,239.2 c 19.7,28.3 12.6,67.4 -15.7,87.1 -28.4,19.6 -67.4,12.7 -87.2,-15.8 l -165.8,-239.1 c -19.8,-28.4 -12.7,-67.3 15.6,-87 28.2,-19.7 67.2,-13 87,15.6"
         style="fill:#000000;fill-opacity:1;fill-rule:nonzero;stroke:none"
         id="path18" />
      <path
         d="m 35149.1,8962.3 -63.5,47.3 c -27.6,20.7 -66.9,15 -87.5,-12.7 -20.6,-27.7 -15,-66.9 12.8,-87.5 l 63.4,-47.3 c 27.5,-20.7 66.9,-15.1 87.5,12.7 20.6,27.8 15,66.9 -12.7,87.5"
         style="fill:#000000;fill-opacity:1;fill-rule:nonzero;stroke:none"
         id="path20" />
      <path
         d="m 34457.6,9016.2 c -24.7,23.7 -64.1,23.4 -88.4,-1.7 -24,-24.8 -23.3,-64.4 1.7,-88.5 l 141.5,-136.2 c 25.2,-24.3 64.8,-22.9 88.5,1.7 23.9,24.9 23.2,64.5 -1.7,88.5 l -141.6,136.2"
         style="fill:#000000;fill-opacity:1;fill-rule:nonzero;stroke:none"
         id="path22" />
      <path
         d="m 33497.9,8614.2 c -18.6,29.3 -57.4,37.6 -86.3,19.4 -29.3,-18.6 -37.9,-57.2 -19.5,-86.4 l 43.5,-68.9 c 18.4,-29 56.7,-38 86.4,-19.5 29.2,18.6 37.9,57.2 19.5,86.4 l -43.6,69"
         style="fill:#000000;fill-opacity:1;fill-rule:nonzero;stroke:none"
         id="path24" />
      <path
         d="m 34077.3,7445.9 -203,100.2 c -30.8,15.2 -68.5,2.7 -83.8,-28.4 -15.3,-30.9 -2.6,-68.5 28.4,-83.8 l 203.2,-100.2 c 30.3,-15.1 68.2,-3 83.7,28.5 15.3,30.9 2.6,68.4 -28.5,83.7"
         style="fill:#000000;fill-opacity:1;fill-rule:nonzero;stroke:none"
         id="path26" />
      <path
         d="m 35044.5,7801.6 c -32.3,11.7 -68.3,-4.6 -80.3,-37.3 -11.9,-32.3 4.7,-68.3 37.2,-80.3 l 184.1,-67.5 c 31,-11.8 68,3.6 80.3,37 12,32.4 -4.7,68.4 -37,80.3 l -184.3,67.8"
         style="fill:#000000;fill-opacity:1;fill-rule:nonzero;stroke:none"
         id="path28" />
      <path
         d="m 11019.3,6868.8 572.1,2577.8 h 193 c 72.1,0 130.7,58.7 130.7,130.7 V 9934 c 0,71.9 -58.6,130.6 -130.7,130.6 H 9991.7 c 60.3,246.2 151.8,520.2 274.2,819.7 11.3,27.6 -2.3,54.9 -29.5,70.3 -27.6,11.2 -59,-1.9 -70.3,-29.5 -128.5,-314.6 -223.74,-602.3 -285.29,-860.5 h -107.1 c -159.98,588.7 -333.58,1659.8 -426.06,2140.8 -6.5,34 -36.99,51.9 -73.23,49.6 -33.93,-6.6 -56.11,-39.2 -49.63,-73.2 25.57,-132.8 57.41,-310.3 93.12,-508.4 -294.06,588.1 -895.79,435.2 -1231.95,917.9 303.56,-278.5 733.42,-382.9 1137.67,-368.1 -128.83,678.3 -201.4,1439.2 -238.85,2186.8 -333.38,322.2 -500.94,809.3 -506.82,829.9 -11.55,32.3 5.47,68 39.03,79.8 33.75,10.6 68.21,-6.7 78.75,-40.5 1.82,-3.4 131.64,-382.7 380.87,-678 -29.52,690.6 -30.54,1361.8 -19.87,1937.3 -441.77,264.1 -592.64,984.5 -598.87,1015.2 -6.83,34.3 15.74,67.1 50.09,73.9 33.72,3 65.71,-14.7 72.55,-49 2.43,-7.2 131.76,-625.9 478.97,-892.7 19.84,870.9 65.02,1491.2 70.72,1565.6 2,34.6 31.93,60.9 66.65,57.7 34.73,-3.2 61.1,-33.2 57.87,-67.9 -0.67,-11.5 -19.54,-270.4 -38.12,-687.6 260.75,157.5 275.4,387.8 274.83,399.1 2,34.6 30.69,60.8 65.03,59.9 34.32,-0.7 61.74,-29.2 60.97,-63.5 -1.31,-15.4 -16.63,-351.1 -406.63,-539.6 -17.39,-432.2 -33.16,-999.7 -29.9,-1630 333.48,146.5 627.27,600.7 630.37,605 19.26,29.7 57.31,37.1 86.84,19.1 28.28,-18.2 37.14,-57.3 19.12,-86.8 -14.28,-21.4 -344.71,-530.9 -736.33,-670.2 5.54,-675.6 31.53,-1414.9 97.52,-2127.5 297.47,181.2 334.17,564.6 333.37,569.6 3.43,33.4 33.37,59.8 68.09,56.6 34.73,-3.3 59.89,-33.4 56.64,-68.1 -1.73,-20.6 -46.47,-495.2 -446.19,-694.2 39.68,-401.4 93.18,-794.3 162.61,-1160.5 54.33,0.6 109.03,2.4 163.75,5.1 -86.65,-550.1 200.43,-990.9 668.01,-1272.2 226.3,550.3 532.2,1133.7 857.1,1691 -89,389.5 19.4,820 24.8,837.7 6.9,28.7 36,46.5 65.8,39.2 29.3,-8.3 46,-37 37.7,-66.3 -0.3,-3.4 -85.1,-338.3 -44.2,-668.7 303.8,512.4 619,997.3 897.6,1407.7 -194.5,398.7 35.7,989.7 45.6,1014.8 11.3,28 43,41 71,29.8 25.7,-13.8 40.5,-41.6 29.3,-69.6 -1.6,-6.3 -199.5,-513.8 -74.5,-869.9 424.3,619.3 749,1045.9 788.1,1096.9 17.7,24 51.7,28.9 75.3,10.3 23.5,-18.7 28.4,-52.8 9.7,-76.3 -5.8,-8 -141.4,-186 -351.2,-478.4 262.4,-9.1 381.4,150.3 386.3,158.7 17.7,24 50.8,29.4 75.2,12.7 24.4,-16.7 30.8,-50.2 14.1,-74.6 -8.2,-10.5 -177.3,-245.6 -547.6,-198.1 -216,-303.8 -494.5,-706 -788.9,-1162.5 309.7,-51.3 735.6,138.3 739.8,139.9 27.9,12.4 58.9,-0.2 71.7,-27.1 11.9,-26.4 -0.2,-58.8 -27.1,-71.6 -20.3,-8.7 -498.7,-220.9 -847,-137.2 -314,-490.2 -643.3,-1036.1 -931.1,-1581.6 300,-9.2 507,250.3 508.8,254.2 18.2,22.6 52.2,27.5 75.8,8.8 23.5,-18.7 27.5,-52.2 8.8,-75.8 -10.9,-14 -266.7,-335.6 -648.9,-291.1 -160.3,-308.4 -306.6,-617.2 -428.9,-914.2 226.1,-143.9 472.1,-277.7 744,-273.3 315.7,5 623.2,177.4 793.8,442.5 286.9,447 183.6,1119.5 625.3,1455.4 142.1,107.9 319.9,155.2 485,224.6 540.7,230.1 420.8,524.2 327.6,925.1 -138.4,583.2 85.8,1287.6 705.6,1682.1 V 6456.1 H 10691 c 162.5,78.9 287.1,227.1 328.3,412.7 z m -3253.71,2708.5 5.49,362.2 c 40.63,-7.7 3971.52,0 4013.32,0 3,0 5.5,-2.6 5.5,-5.5 l -5.5,-362.2 z m 6318.61,23867.2 h 987.3 V 6472 h -987.3 v 8955.6 c 143.1,84.3 288.3,165.4 415.9,270.7 546.1,450.6 363.7,1092.5 -415.9,1170.8 z m 1801,-630.6 h 4486.2 v -1101.2 c 0,-91.3 75.1,-166.4 166.5,-166.4 h 4886.6 c 91.4,0 165.2,75.1 165.2,166.4 v 1101.2 h 4487.5 v -4677.6 c -266.3,0.1 964.5,-0.6 -2604.1,1.5 -35.9,0 -64.2,-29.5 -64.2,-64.2 v -161.3 H 17096.6 c -34.6,0 -62.6,-28 -62.6,-62.6 V 22490 c 0,-34.6 28,-62.5 62.6,-62.5 h 11770.5 c 34.6,0 62.6,27.9 62.6,62.5 v 874.7 h 1147.5 v -16129 h -14192 z m 6070.5,-427.9 h 52.5 c 35.1,0 62.6,-27.6 62.6,-62.6 0,-35 -27.5,-62.6 -62.6,-62.6 h -52.5 c -33.8,0 -62.6,27.6 -62.6,62.6 0,35 28.8,62.6 62.6,62.6 z m 436.7,0 h 1614.3 c 33.8,0 62.6,-27.6 62.6,-62.6 0,-35 -28.8,-62.6 -62.6,-62.6 h -1614.3 c -35,0 -62.6,27.6 -62.6,62.6 0,35 27.6,62.6 62.6,62.6 z m 5080.7,-9023.3 c 60.8,0.1 1270.7,1.9 1331.4,2 v -812.1 H 17159.2 v 5234.5 h 10249.7 v -4360.2 c 0,-34.6 28.3,-64.2 64.2,-64.2 z m 7176.6,2541.6 c -780.8,674.1 -1221.9,379.4 -533.9,-225 65,-57 131.2,-115.1 187.1,-169.8 -74.8,2.9 -150.3,-22.2 -202.6,-117.1 -59,-106.9 -9,-226.6 85.2,-348.8 -120.3,-23.6 -280.8,-186.5 -99.8,-394.9 -261.3,-46.3 -92.7,-617.7 564,-994 v -164.8 c -1931.5,0 -4755.4,0 -6684.8,0 v 4521.2 h 6684.8 z m 524.8,-696.7 c 43.1,-48.6 123.4,-6.7 107.5,56.7 -19.9,79.3 -54.6,307.9 23,413 25.7,34.7 61,52.2 111.3,55 255.5,14.6 524.3,-776.8 643.5,-1313.1 l -830.6,-838.3 c -637.6,83.3 -1185.6,681.1 -1128.9,942.2 41.2,14.5 139.5,-29.6 179.2,-48.7 65.8,-31.5 124.1,57.5 67.3,104.8 -365.9,303.6 -176.4,439.7 45.6,240.4 60.1,-53.9 144,34.5 85.9,91.4 -126.2,123.8 -361.1,349.5 -242.4,456.1 121.4,106.1 392.4,-201.4 425.6,-224.8 60.8,-55.9 145.5,36.2 84.5,92.3 -496.8,507.3 -435.7,440.8 -547.2,538.7 -739.4,648.9 -43.1,581.4 975.7,-565.7 z m 1089,-760.7 1709.4,-1633.8 v -673.4 c 0,-34.6 28,-62.5 62.5,-62.5 34.6,0 62.6,27.9 62.6,62.5 v 691 c 33.3,109.2 371.8,1206.9 751.1,2006.3 -4,-102.5 7.5,-209.9 44.1,-319.1 10.9,-32.9 46.5,-50.4 79.2,-39.5 32.7,11 50.3,46.5 39.3,79.2 -113.7,339.6 56.1,768.1 275.9,994 434.5,446.6 1202.9,503.8 1206.5,504.1 l 1987.3,0.7 c 7.9,-1.2 803.6,-115.6 1259.9,-394.5 683.9,-420.1 1495.3,-2394.5 1589.9,-3180.2 108.1,-879.1 -1038.1,-3536 -1363,-4266.6 l -4.2,532.3 c 0.7,-0.1 1.2,-0.6 1.9,-0.7 33.4,-5.8 66.3,16.6 72.3,51.2 44.9,265.4 164.5,1002.8 266.9,1905 0,0 0,0 0,0.1 0,0.1 0,0.3 0,0.5 136.3,1201.3 242.1,2695.2 100.4,3760.4 -4.7,34.3 -36.9,58.1 -70.4,53.8 -34.2,-4.6 -58.3,-36 -53.7,-70.3 97.9,-735.7 76.1,-1680.1 8,-2589.4 -130.4,659.9 -449.1,925.3 -468.5,940.9 -27,21.7 -66,17.3 -87.8,-9.5 -21.7,-26.7 -17.6,-66.1 9.2,-87.9 6.4,-5.2 633.2,-535.1 438.9,-1981.9 v 0 c -102.2,-899.8 -221.6,-1636 -266.5,-1900.7 -2.3,-13.6 1,-26.5 6.8,-38 h -5012.6 l 104.5,1800.7 c 696.9,717.4 1400.5,2028.4 1407.6,2041.7 16.3,30.5 4.8,68.4 -25.8,84.6 -30.2,16.1 -68.3,4.9 -84.7,-25.7 -6.9,-13.2 -711.1,-1325.5 -1400,-2027.1 -0.8,-0.7 -2.1,-0.7 -2.9,-1.5 -413.8,-422 -722.4,-543.2 -1502.2,97.8 -1.1,1.3 -1.5,2.9 -2.7,4.1 -719.5,720.2 -683.8,1290.7 -683.2,1298.6 3,34.3 -22.3,64.6 -56.7,67.7 -34.7,4 -64.9,-22.3 -67.9,-56.8 -1.6,-17.8 -22.9,-321.2 227.7,-764.9 -535.5,559.4 -1049.7,1228.2 -1364,1656.8 l 716.4,666.3 c 25.3,23.6 26.6,63.2 3.2,88.5 -23.7,25.4 -63.1,26.7 -88.5,3.2 l -705.4,-656.1 c -97.8,135 -170,238 -207.2,291.7 1201.9,1185.5 1042.1,1051.7 1086.4,1096.4 z m 4414.8,2685.7 c -12.6,7.7 -28,10.9 -44,8.1 -108.2,-20.2 -229.4,-24.3 -252.4,-10.3 -199.4,208.1 -103.1,876.5 -1.3,1327.6 34.7,-8.4 56.9,-12.5 56.9,-12.5 0,0 -130.4,-247.8 39.1,-346.1 l -44.7,-579.1 109.1,-35.8 c 0,0 124.5,385.7 332.3,316.5 260.3,-86.7 183,-650.9 183,-650.9 238,-115 406.5,-165.6 649.2,-144 l 39.6,-242.9 c -282,10.7 -612.3,-7.1 -871.3,-72.2 3.7,172.1 -34.2,343.3 -195.5,441.6 z m 2809.9,-14860.1 262.8,262.8 c 23.8,25 63.9,25 87.6,1.2 25.1,-25 25.1,-65.1 1.3,-88.8 l -262.8,-264.1 c -27.6,-24.9 -64.6,-21.8 -88.9,0 -23.7,25.1 -23.7,63.9 0,88.9 z m 188.9,-4531.4 c -12.6,-3.8 -671.7,-204.3 -630.1,-191.6 -12.8,8.6 -389.9,262.6 -366.4,246.8 l -16.2,160.2 h 1013.3 z M 40612.3,6659.6 c -1.8,110.1 6.9,-438.6 -20.4,1296.9 h 419.8 l 533.1,6528.4 c -30,1.3 -55,26.3 -57.5,57.6 l -88.9,1411.5 c -2.5,35.1 23.8,65.1 58.8,66.4 37.6,3.7 63.9,-23.8 66.4,-57.6 l 88.8,-1412.8 c 2.5,-33.8 -22.5,-62.6 -57.5,-66.3 l 576.8,-6527.2 h 407 l 16.4,-162.7 -870.6,-520.2 -413.7,-43.4 c -295.2,-30.9 -517.9,-278.2 -517.9,-575 0,-82.1 40.7,-154.3 102.5,-199.1 H 40510 c 70.2,51 103.7,126.5 102.3,203.5 z M 40466,7741.1 c -12.6,-3.8 -671.6,-204.3 -630,-191.6 -12.8,8.6 -390,262.7 -366.5,246.9 l -16.1,160.1 h 1013.3 z m -1033.5,4442.5 c -27.6,-24.9 -64.6,-21.8 -88.8,0 l -261.6,264.1 c -25,23.7 -25,63.8 0,88.8 25,23.8 63.8,23.8 88.9,-1.2 l 261.5,-262.8 c 25,-25 25,-63.8 0,-88.9 z m -1703.1,-5300 c 70.6,120.8 194.9,206.6 343.4,222.2 l 427.5,44.8 c 26.8,2.9 -23.2,-18.2 908,535.7 12.8,-8.6 407.3,-274.1 382.5,-257.4 11.3,-7.7 32.6,-13.3 51.4,-8.1 20.5,5.6 640.2,194.2 627.6,190.4 l 13.2,-727.6 z m 5272.5,545.3 c 11.2,-7.6 32.3,-13.2 51.1,-8.1 20.5,5.5 640.5,194.2 627.8,190.4 l 13.3,-727.6 h -2753.6 c 70.4,120.8 194.8,206.6 343.3,222.2 452.8,49.4 432.4,40.9 453.1,53.3 l 882.4,527.2 c 12.8,-8.6 407.4,-274.1 382.6,-257.4 z m -8769.2,6780.3 c -34.1,8.1 -67.4,-13.4 -74.8,-47.2 -291.3,-1285.7 -720.4,-2810 -1333.2,-4248.2 -997.5,308.7 -1861.6,1221.5 -1436.3,2924.6 350.1,1402.1 1736.9,3338.3 3070,3005.1 1209.4,-302.1 1698.4,-2487.7 1296.8,-4095.8 -392.3,-1572.4 -1513.8,-2203.8 -2809.6,-1868.4 613.2,1442.5 1042.7,2967.8 1334.2,4255.1 7.7,33.7 -13.4,67.2 -47.1,74.8 z m -242.6,-4871 c 796.2,91.5 2000.5,-269.4 2078.4,-973.3 73.7,-663.1 -931.4,-1319.3 -1812.7,-1420.4 -741.2,-85.7 -1320.8,235.2 -1438.6,971.7 1152.6,309 2338.2,379.9 2354,380.8 34.5,2 60.9,31.6 58.9,66 -1.8,34.4 -26.8,61.2 -66,58.9 -15.9,-0.9 -1199.9,-71.8 -2361.9,-380.6 -42.7,565.7 245.2,1188.7 1187.9,1296.9 z m -2310,-1826.8 c 1,0 1.8,-0.8 2.7,-0.8 9.3,0 18.7,2.1 27.6,6.4 299.7,147.2 639.2,267.4 985.4,365.6 121.8,-722.2 689.2,-1164.5 1574.1,-1062.5 957.3,109.8 2005.7,814.7 1923,1558.7 -86.4,779.2 -1324,1186.1 -2217,1083.8 -1045.3,-120.1 -1354.3,-824.2 -1296.7,-1455 -303,-85.2 -601.4,-187 -874.4,-308.6 414.9,637.4 776.9,1338.7 1091.3,2064 1370.1,-363.7 2569.1,306.8 2980.6,1954.4 423.9,1698.1 -90,3923.3 -1388,4247.5 -1403.3,350 -2848.4,-1601.8 -3221.7,-3096.2 C 30822,11086.5 31726.8,10127 32775.1,9798 32261.1,8615 31620.8,7496.8 30828,6626 v 2183.8 c 954.7,562.5 743.4,1670.4 0,2497.9 v 12057 h 3884.3 c 34.6,0 62.6,28 62.6,62.6 v 162.1 c 110.2,-52.1 226.8,-92.3 347.1,-116.7 l -70.3,-71 c -21,-21.2 -24.1,-54.4 -7.4,-79.1 64.7,-95.2 1225.9,-1795.5 2269.2,-2654.9 0.3,-0.2 0.5,-0.4 0.7,-0.7 0.4,-0.3 0.9,-0.5 1.3,-0.8 612,-503.6 1049.2,-680.3 1565.1,-212.7 l -100.8,-1736 c -1,-17.2 5.1,-34.1 17,-46.6 11.7,-12.6 28.2,-19.7 45.4,-19.7 h 55 l 9.7,-5260 c 37.3,0 21.2,-8.6 559.4,-541.8 23.8,-25.1 23.8,-65.1 -1.3,-88.9 -22.5,-25 -65,-25 -87.6,0 l -469.2,471.8 10,-5275.8 h 409.4 l 16.5,-162.8 -870.6,-520.1 -413.6,-43.4 c -295.4,-30.9 -518,-278.2 -518,-575 0,-82.1 40.6,-154.3 102.5,-199.1 h -6803.9 c 300.7,320.1 580.2,674.8 839.6,1055.3 z m -852.1,3604.4 c 590.7,-727.6 765.1,-1655.2 0,-2158.7 z M 46437.4,6456.1 H 43721 c 70.3,51 103.7,126.6 102.3,203.5 -1.7,110.1 6.9,-438.6 -20.4,1296.9 h 247.2 l -42.5,5269.5 -463,-465.5 c -24.3,-24.2 -63.2,-25.7 -88.9,0 -23.8,23.8 -23.8,63.8 0,88.9 550.9,549.5 524.4,537.3 550.6,540.6 l -35.9,4557 c 11.4,6.4 21.3,15.3 26.8,27.5 64.9,141.1 1587.7,3469.5 1458.2,4522.3 -108,898.2 -1057.6,3024.2 -1655.7,3276.1 -356.5,215.3 -912.2,350 -1326.5,408 -42.9,146.7 -160.6,506.1 -290.8,534.9 -80.2,17.8 -187.8,31.7 -309.4,40.5 l -50.1,307.2 c 1794.2,3007.7 -3119.3,1950.5 -1563.5,1429.5 -99.6,-430.5 -225,-1180.9 32.2,-1449.2 62.1,-64.6 230.1,-49.3 340.5,-30.6 102.7,-75.1 124.5,-206.3 114.5,-360.8 -118.2,-42.2 -213,-97.1 -265,-168.7 -37.9,-52.2 -15.8,-214.1 0.1,-303.6 -81.5,-6.3 -831.5,-76.3 -1283.8,-541.3 -492.3,-505.8 -1056.3,-2246.6 -1192.5,-2683.7 l -1699.9,1624.7 c -24.7,23.7 -63.7,23 -87.7,-1.2 l -54.1,-54.5 c -90.8,375.9 -365.8,1355.6 -754.3,1333.1 -86.7,-4.7 -157.7,-41.2 -205.1,-105.6 -63.7,-86.2 -76.4,-208.5 -72.2,-312.9 -91,96.3 -217.6,225.3 -357.2,353.9 v 2281.1 c 0,34.6 -28,62.6 -62.6,62.6 H 30828 V 33566 c -12.9,0 560.9,-0.1 -16806.4,3.7 -34.5,0 -62.5,-28 -62.5,-62.6 V 16875.2 c -289.5,2.6 -580.3,-84.5 -816.9,-251.8 -398,-280.9 -649.8,-771.6 -1109.7,-934.3 -322.1,-114.8 -853.4,-20.5 -1032.1,-1025.2 -65.6,-368.7 -81.3,-730.5 -292.7,-1031.6 -109.5,508.7 -465.5,1026.3 -282.1,1540.5 69.7,194.9 212.5,353.6 329,525.7 379.7,566.3 76.8,776.2 -267.9,1106.8 -499.98,475.1 -685.51,1253.2 -455.2,1903.5 105.4,295.8 286.7,560.7 380.2,859.6 226.1,723.1 -258.1,1234.7 -1004.62,939.3 -405.89,-160.7 -740.64,-494.9 -901.62,-900.9 -208.8,-525.3 -142.45,-1161.9 -486.36,-1611.5 -240.25,-315.8 -816.39,-560.9 -353.37,-1650.7 159.65,-375.6 374.39,-747.4 372.11,-1155.7 -2.91,-498.3 -327.67,-941 -385.65,-1435.5 -11.92,-100.4 -10.41,-201.7 0.86,-302 -276.11,372.7 -534.99,260.3 -781.04,287.7 -370,40.3 -642.88,360.6 -987.63,499.5 -266.29,107.5 -577.18,99.8 -837.81,-20.5 -479.47,-221.4 -455.05,-684 -8.57,-904.3 184.65,-91 392.99,-124.9 581.55,-208.9 414.05,-185.4 700.24,-626.7 699.57,-1080.2 1.09,-342.7 -22.53,-555.7 405.27,-629.5 134.79,-22.6 275.07,-26.6 399.52,-81.9 390.6,-173.8 427.34,-689.1 719.2,-971.3 173.06,-167 431.61,-241.2 666.95,-189.6 202.66,44.3 361.88,186.8 504.65,333.2 -142.83,199.2 -305.55,402.9 -478.63,603.9 -276.04,-100 -522.24,94 -532.83,102.5 -18,14.2 -20.93,39.8 -6.71,57.8 14.21,18 40.34,20.3 57.84,6.8 1.99,-2.7 201.13,-159.1 422.3,-99.7 -309.23,354.6 -649.36,702.4 -968.37,1011.4 -244,-123.1 -636.4,-49.3 -653.02,-46.4 -22.22,4.8 -36.81,26.7 -32.66,48.5 4.82,22.2 25.61,36.9 48.5,32.6 3.45,-0.5 352.89,-66.7 573.88,25.6 -298.52,287.5 -575.77,537.4 -789.39,725.2 -266.66,-100.1 -433.37,44.8 -441.29,51.2 -16.68,15.2 -17.82,41.2 -2.6,57.9 15.19,16.7 40.67,18.4 58.02,3.7 5.12,-5.4 121.41,-102.9 314.66,-50.2 -207.01,180.4 -338.81,288.8 -344.6,293.7 -17.98,14.3 -20.28,40.4 -6.07,58.4 14.22,18 40.35,20.3 57.69,5.6 37.98,-31.1 353.78,-291 777.29,-676.6 30.52,286.3 -205.31,628.5 -207.63,632.9 -13.26,18.9 -7.14,42.1 9.55,56.8 18.84,13.3 44.68,9.1 57.93,-9.7 11.76,-16.8 286.22,-415.4 211.55,-745.5 278.77,-256 597.77,-560.9 913.09,-888.3 -27.49,252.6 -149.13,486.4 -149.96,488.9 -11.3,20.3 -3.87,44.5 16.47,55.8 20.82,10.7 45.53,2.6 55.68,-17.6 7.13,-12.1 162.99,-312.8 165.13,-617.7 338.85,-356.9 668.11,-736.6 932.55,-1105.6 166.29,162.2 307.91,391.3 335.4,630.9 74.23,-396.8 157.02,-808.7 237.58,-1113.8 h -257.85 c -80.92,145.5 -179.58,300.3 -295.98,463.5 -13.23,18.5 -38.82,22.8 -57.36,9.6 -17.53,-16.2 -22.82,-38.8 -9.61,-57.3 104.18,-146.1 193.15,-284.6 268.2,-415.8 H 7771.08 c -72.04,0 -130.64,-58.7 -130.64,-130.6 v -356.7 c 0,-72 58.6,-130.7 130.64,-130.7 h 193.02 l 572.12,-2577.8 c 41.19,-185.6 165.81,-333.8 328.28,-412.7 H 3657.4 c -34.52,0 -62.57,-28 -62.57,-62.5 0,-34.6 28.05,-62.6 62.57,-62.6 1003.26,0 41463.8,0 42780,0 34.6,0 62.6,28 62.6,62.6 0,34.5 -28,62.5 -62.6,62.5"
         style="fill:#000000;fill-opacity:1;fill-rule:nonzero;stroke:none"
         id="path30" />
      <path
         d="m 24289.5,20252.5 c -160.2,0 -290.3,130.2 -290.3,291.6 0,160.2 130.1,290.3 290.3,290.3 161.4,0 290.3,-130.1 290.3,-290.3 0,-161.4 -128.9,-291.6 -290.3,-291.6 z m -1307.7,-150.1 c -244,0 -440.5,196.4 -440.5,441.7 0,242.8 196.5,440.5 440.5,440.5 242.8,0 440.5,-197.7 440.5,-440.5 0,-245.3 -197.7,-441.7 -440.5,-441.7 z m -1308.9,150.1 c -160.2,0 -290.4,130.2 -290.4,291.6 0,160.2 130.2,290.3 290.4,290.3 160.1,0 290.3,-130.1 290.3,-290.3 0,-161.4 -130.2,-291.6 -290.3,-291.6 z m 4439.9,1339 h -6263.2 v -2096 h 6263.2 v 2096"
         style="fill:#000000;fill-opacity:1;fill-rule:nonzero;stroke:none"
         id="path32" />
      <path
         d="m 28640.6,30242.3 h -1341.5 c -33.8,0 -62.6,27.6 -62.6,62.6 0,35.1 28.8,62.6 62.6,62.6 h 1341.5 c 35,0 62.5,-27.5 62.5,-62.6 0,-35 -27.5,-62.6 -62.5,-62.6 z m 0,-485.5 h -1341.5 c -33.8,0 -62.6,27.5 -62.6,62.6 0,33.8 28.8,62.5 62.6,62.5 h 1341.5 c 35,0 62.5,-28.7 62.5,-62.5 0,-35.1 -27.5,-62.6 -62.5,-62.6 z m 0,-485.5 h -1341.5 c -33.8,0 -62.6,27.5 -62.6,62.5 0,33.8 28.8,62.6 62.6,62.6 h 1341.5 c 35,0 62.5,-28.8 62.5,-62.6 0,-35 -27.5,-62.5 -62.5,-62.5 z m -8709.7,185.2 c -200.2,0 -362.9,162.7 -362.9,362.9 0,200.2 162.7,362.9 362.9,362.9 201.5,0 362.9,-162.7 362.9,-362.9 0,-200.2 -161.4,-362.9 -362.9,-362.9 z m -1152.5,0 c -200.2,0 -362.9,162.7 -362.9,362.9 0,200.2 162.7,362.9 362.9,362.9 201.5,0 362.9,-162.7 362.9,-362.9 0,-200.2 -161.4,-362.9 -362.9,-362.9 z m -1152.5,0 c -200.2,0 -364.2,162.7 -364.2,362.9 0,200.2 164,362.9 364.2,362.9 200.2,0 362.9,-162.7 362.9,-362.9 0,-200.2 -162.7,-362.9 -362.9,-362.9 z m 11631.6,1499.1 H 16704.9 v -2272.5 h 12552.6 v 2272.5"
         style="fill:#000000;fill-opacity:1;fill-rule:nonzero;stroke:none"
         id="path34" />
      <path
         d="m 36279.8,32671 c 1022,0 1853.5,-831.5 1853.5,-1853.5 0,-504 -199.3,-975.7 -561,-1328.2 -14,-13.5 -20.8,-32.6 -18.6,-51.9 l 74.2,-644.8 -590.5,307.6 c -16.6,8.7 -36.1,9.3 -52.7,2.5 -225,-92 -462.2,-138.7 -704.9,-138.7 -1022.7,0 -1854.8,831.5 -1854.8,1853.5 0,1022 832.1,1853.5 1854.8,1853.5 z m 0,-3832.2 c 249.3,0 493.1,46.2 725.2,137.2 l 669.6,-348.8 c 44.2,-23 96.7,12.5 91.1,62.6 l -84.2,731.7 c 372.4,373.8 577,868.2 577,1396 0,1091 -887.6,1978.6 -1978.7,1978.6 -1091.7,0 -1979.9,-887.6 -1979.9,-1978.6 0,-1091 888.2,-1978.7 1979.9,-1978.7"
         style="fill:#000000;fill-opacity:1;fill-rule:nonzero;stroke:none"
         id="path36" />
      <path
         d="m 35565.7,31029.5 c 126.4,0 229,-102.6 229,-230.3 0,-126.4 -102.6,-229 -229,-229 -126.4,0 -229,102.6 -229,229 0,127.7 102.6,230.3 229,230.3 z m 713.3,0 c 126.4,0 229,-102.6 229,-230.3 0,-126.4 -102.6,-229 -229,-229 -126.4,0 -229,102.6 -229,229 0,127.7 102.6,230.3 229,230.3 z m 713.3,0 c 126.4,0 229,-102.6 229,-230.3 0,-126.4 -102.6,-229 -229,-229 -126.4,0 -229,102.6 -229,229 0,127.7 102.6,230.3 229,230.3 z m -712,-1696.9 c 808.4,0 1465.3,658.2 1465.3,1466.6 0,809.7 -656.9,1466.6 -1465.3,1466.6 -809.7,0 -1467.9,-656.9 -1467.9,-1466.6 0,-808.4 658.2,-1466.6 1467.9,-1466.6"
         style="fill:#000000;fill-opacity:1;fill-rule:nonzero;stroke:none"
         id="path38" />
      <path
         d="m 20136.2,24427.2 h -1070 c -132.6,0 -225.2,135.1 -175.2,257.8 97.6,240.2 314.1,420.4 575.7,466.7 -169,56.3 -290.3,215.3 -290.3,403 0,234 190.2,424.2 424.2,424.2 234,0 425.4,-190.2 425.4,-424.2 0,-187.7 -122.6,-347.9 -291.5,-403 262.8,-46.3 479.3,-226.5 576.9,-466.7 50,-122.7 -42.6,-257.8 -175.2,-257.8 z m -535.6,2355.1 c -889.8,0 -1611.8,-722.1 -1611.8,-1611.8 0,-891 722,-1613 1611.8,-1613 891,0 1613,722 1613,1613 0,889.7 -722,1611.8 -1613,1611.8"
         style="fill:#000000;fill-opacity:1;fill-rule:nonzero;stroke:none"
         id="path40" />
      <path
         d="m 26525,26479.9 h -4566.2 c -34.6,0 -62.6,-28 -62.6,-62.6 0,-34.5 28,-62.5 62.6,-62.5 H 26525 c 34.6,0 62.6,28 62.6,62.5 0,34.6 -28,62.6 -62.6,62.6"
         style="fill:#000000;fill-opacity:1;fill-rule:nonzero;stroke:none"
         id="path42" />
      <path
         d="m 26525,25856.1 h -4566.2 c -34.6,0 -62.6,-28 -62.6,-62.6 0,-34.5 28,-62.5 62.6,-62.5 H 26525 c 34.6,0 62.6,28 62.6,62.5 0,34.6 -28,62.6 -62.6,62.6"
         style="fill:#000000;fill-opacity:1;fill-rule:nonzero;stroke:none"
         id="path44" />
      <path
         d="m 26525,25232.3 h -4566.2 c -34.6,0 -62.6,-28 -62.6,-62.5 0,-34.6 28,-62.6 62.6,-62.6 H 26525 c 34.6,0 62.6,28 62.6,62.6 0,34.5 -28,62.5 -62.6,62.5"
         style="fill:#000000;fill-opacity:1;fill-rule:nonzero;stroke:none"
         id="path46" />
      <path
         d="m 26525,24608.5 h -4566.2 c -34.6,0 -62.6,-28 -62.6,-62.5 0,-34.6 28,-62.6 62.6,-62.6 H 26525 c 34.6,0 62.6,28 62.6,62.6 0,34.5 -28,62.5 -62.6,62.5"
         style="fill:#000000;fill-opacity:1;fill-rule:nonzero;stroke:none"
         id="path48" />
      <path
         d="m 25199,23984.7 h -3240.2 c -34.6,0 -62.6,-28 -62.6,-62.6 0,-34.6 28,-62.6 62.6,-62.6 H 25199 c 34.6,0 62.6,28 62.6,62.6 0,34.6 -28,62.6 -62.6,62.6"
         style="fill:#000000;fill-opacity:1;fill-rule:nonzero;stroke:none"
         id="path50" />
      <path
         d="m 32721.6,25944.7 -350,-615.2 -1065.1,1873.5 -1065.1,-1873.5 -350,615.2 -936.1,-1646.6 H 33657 l -935.4,1646.6"
         style="fill:#000000;fill-opacity:1;fill-rule:nonzero;stroke:none"
         id="path52" />
      <path
         d="m 29806.1,26602.6 c 205.7,0 372.4,166.7 372.4,372.5 0,205.7 -166.7,372.4 -372.4,372.4 -205.8,0 -372.5,-166.7 -372.5,-372.4 0,-205.8 166.7,-372.5 372.5,-372.5"
         style="fill:#000000;fill-opacity:1;fill-rule:nonzero;stroke:none"
         id="path54" />
      <path
         d="m 20096.5,12172 h -2895.6 v 2675.7 h 2895.6 z m 62.5,2800.9 h -3020.7 c -34.6,0 -62.6,-28 -62.6,-62.6 v -2800.8 c 0,-34.6 28,-62.6 62.6,-62.6 H 20159 c 34.6,0 62.6,28 62.6,62.6 v 2800.8 c 0,34.6 -28,62.6 -62.6,62.6"
         style="fill:#000000;fill-opacity:1;fill-rule:nonzero;stroke:none"
         id="path56" />
      <path
         d="m 18196.8,12835.8 964.3,626.9 c 33.7,21.9 33.7,71.3 0,93.2 l -964.2,628 c -37,24.1 -85.9,-2.4 -85.9,-46.5 v -1255 c 0,-44.1 48.9,-70.7 85.8,-46.6"
         style="fill:#000000;fill-opacity:1;fill-rule:nonzero;stroke:none"
         id="path58" />
      <path
         d="m 20096.5,15872.8 h -2895.6 v 2675.5 h 2895.6 z m 62.5,2800.7 h -3020.7 c -34.6,0 -62.6,-28 -62.6,-62.6 v -2800.7 c 0,-34.6 28,-62.6 62.6,-62.6 H 20159 c 34.6,0 62.6,28 62.6,62.6 v 2800.7 c 0,34.6 -28,62.6 -62.6,62.6"
         style="fill:#000000;fill-opacity:1;fill-rule:nonzero;stroke:none"
         id="path60" />
      <path
         d="M 20096.5,8471.4 H 17200.9 V 11147 h 2895.6 z m 62.5,2800.7 h -3020.7 c -34.6,0 -62.6,-28 -62.6,-62.5 V 8408.8 c 0,-34.5 28,-62.5 62.6,-62.5 H 20159 c 34.6,0 62.6,28 62.6,62.5 v 2800.8 c 0,34.5 -28,62.5 -62.6,62.5"
         style="fill:#000000;fill-opacity:1;fill-rule:nonzero;stroke:none"
         id="path62" />
      <path
         d="m 18351.8,9999.9 c 0,164.2 132.8,297.1 296.7,297.1 164.3,0 297.1,-132.9 297.1,-297.1 0,-164 -132.8,-296.8 -297.1,-296.8 -163.9,0 -296.7,132.8 -296.7,296.8 z m 353.2,-1067 c 158.5,192.3 596.8,752 596.8,1047.7 0,360.6 -292.3,653 -653,653 -360.6,0 -653.3,-292.4 -653.3,-653 0,-295.7 438.7,-855.4 597.2,-1047.7 29.1,-35.5 83.2,-35.5 112.3,0"
         style="fill:#000000;fill-opacity:1;fill-rule:nonzero;stroke:none"
         id="path64" />
      <path
         d="m 19338.4,17227.1 -170.5,-299.9 -519.1,913 -519,-913 -170.6,299.9 -456.1,-802.5 h 2291.2 l -455.9,802.5"
         style="fill:#000000;fill-opacity:1;fill-rule:nonzero;stroke:none"
         id="path66" />
      <path
         d="m 17960.6,17547.6 c 124,0 224.5,100.5 224.5,224.5 0,124 -100.5,224.4 -224.5,224.4 -124,0 -224.4,-100.4 -224.4,-224.4 0,-124 100.4,-224.5 224.4,-224.5"
         style="fill:#000000;fill-opacity:1;fill-rule:nonzero;stroke:none"
         id="path68" />
      <path
         d="m 28978.2,9649.1 h -7637.1 v 8300.6 h 7637.1 z m 62.6,8425.7 h -7762.3 c -34.6,0 -62.6,-28 -62.6,-62.6 V 9586.5 c 0,-34.5 28,-62.5 62.6,-62.5 h 7762.3 c 34.6,0 62.6,28 62.6,62.5 v 8425.7 c 0,34.6 -28,62.6 -62.6,62.6"
         style="fill:#000000;fill-opacity:1;fill-rule:nonzero;stroke:none"
         id="path70" />
      <path
         d="m 22174.4,15450.8 h 1927.1 c 33.8,0 62.6,28.7 62.6,62.5 V 17010 c 0,33.8 -28.8,62.5 -62.6,62.5 h -1927.1 c -35.1,0 -62.6,-28.7 -62.6,-62.5 v -1496.7 c 0,-33.8 27.5,-62.5 62.6,-62.5"
         style="fill:#000000;fill-opacity:1;fill-rule:nonzero;stroke:none"
         id="path72" />
      <path
         d="m 22174.4,10526.6 h 1927.1 c 33.8,0 62.6,27.5 62.6,62.6 v 1496.6 c 0,33.8 -28.8,62.6 -62.6,62.6 h -1927.1 c -35.1,0 -62.6,-28.8 -62.6,-62.6 v -1496.6 c 0,-35.1 27.5,-62.6 62.6,-62.6"
         style="fill:#000000;fill-opacity:1;fill-rule:nonzero;stroke:none"
         id="path74" />
      <path
         d="m 22174.4,12989.3 h 1927.1 c 33.8,0 62.6,27.5 62.6,62.6 v 1495.4 c 0,35 -28.8,62.5 -62.6,62.5 h -1927.1 c -35.1,0 -62.6,-27.5 -62.6,-62.5 v -1495.4 c 0,-35.1 27.5,-62.6 62.6,-62.6"
         style="fill:#000000;fill-opacity:1;fill-rule:nonzero;stroke:none"
         id="path76" />
      <path
         d="m 25031.9,16680.8 h 2971.4 c 34.6,0 62.6,28 62.6,62.6 0,34.6 -28,62.5 -62.6,62.5 h -2971.4 c -34.6,0 -62.5,-27.9 -62.5,-62.5 0,-34.6 27.9,-62.6 62.5,-62.6"
         style="fill:#000000;fill-opacity:1;fill-rule:nonzero;stroke:none"
         id="path78" />
      <path
         d="m 25031.9,16199.1 h 2971.4 c 34.6,0 62.6,28 62.6,62.6 0,34.5 -28,62.5 -62.6,62.5 h -2971.4 c -34.6,0 -62.5,-28 -62.5,-62.5 0,-34.6 27.9,-62.6 62.5,-62.6"
         style="fill:#000000;fill-opacity:1;fill-rule:nonzero;stroke:none"
         id="path80" />
      <path
         d="m 25031.9,15717.5 h 2108.5 c 34.6,0 62.6,27.9 62.6,62.5 0,34.6 -28,62.6 -62.6,62.6 h -2108.5 c -34.6,0 -62.5,-28 -62.5,-62.6 0,-34.6 27.9,-62.5 62.5,-62.5"
         style="fill:#000000;fill-opacity:1;fill-rule:nonzero;stroke:none"
         id="path82" />
      <path
         d="m 25031.9,14218.5 h 2971.4 c 34.6,0 62.6,28 62.6,62.6 0,34.5 -28,62.5 -62.6,62.5 h -2971.4 c -34.6,0 -62.5,-28 -62.5,-62.5 0,-34.6 27.9,-62.6 62.5,-62.6"
         style="fill:#000000;fill-opacity:1;fill-rule:nonzero;stroke:none"
         id="path84" />
      <path
         d="m 25031.9,13736.9 h 2971.4 c 34.6,0 62.6,28 62.6,62.6 0,34.5 -28,62.5 -62.6,62.5 h -2971.4 c -34.6,0 -62.5,-28 -62.5,-62.5 0,-34.6 27.9,-62.6 62.5,-62.6"
         style="fill:#000000;fill-opacity:1;fill-rule:nonzero;stroke:none"
         id="path86" />
      <path
         d="m 25031.9,13255.1 h 2108.5 c 34.6,0 62.6,28 62.6,62.6 0,34.6 -28,62.6 -62.6,62.6 h -2108.5 c -34.6,0 -62.5,-28 -62.5,-62.6 0,-34.6 27.9,-62.6 62.5,-62.6"
         style="fill:#000000;fill-opacity:1;fill-rule:nonzero;stroke:none"
         id="path88" />
      <path
         d="m 25031.9,11756.3 h 2971.4 c 34.6,0 62.6,28 62.6,62.6 0,34.5 -28,62.5 -62.6,62.5 h -2971.4 c -34.6,0 -62.5,-28 -62.5,-62.5 0,-34.6 27.9,-62.6 62.5,-62.6"
         style="fill:#000000;fill-opacity:1;fill-rule:nonzero;stroke:none"
         id="path90" />
      <path
         d="m 25031.9,11274.6 h 2971.4 c 34.6,0 62.6,27.9 62.6,62.5 0,34.6 -28,62.6 -62.6,62.6 h -2971.4 c -34.6,0 -62.5,-28 -62.5,-62.6 0,-34.6 27.9,-62.5 62.5,-62.5"
         style="fill:#000000;fill-opacity:1;fill-rule:nonzero;stroke:none"
         id="path92" />
      <path
         d="m 25031.9,10792.9 h 2108.5 c 34.6,0 62.6,28 62.6,62.6 0,34.6 -28,62.6 -62.6,62.6 h -2108.5 c -34.6,0 -62.5,-28 -62.5,-62.6 0,-34.6 27.9,-62.6 62.5,-62.6"
         style="fill:#000000;fill-opacity:1;fill-rule:nonzero;stroke:none"
         id="path94" />
      <path
         d="m 37728.6,22131.4 c 34.6,0 62.6,27.9 62.6,62.5 v 295.9 c 0,34.6 -28,62.6 -62.6,62.6 -34.6,0 -62.6,-28 -62.6,-62.6 v -295.9 c 0,-34.6 28,-62.5 62.6,-62.5"
         style="fill:#000000;fill-opacity:1;fill-rule:nonzero;stroke:none"
         id="path96" />
      <path
         d="m 40365,21850 c 29.5,-17.1 67.8,-7.6 85.6,22.7 l 254.7,437.7 c 17.3,29.9 7.2,68.2 -22.8,85.5 -29.7,17.4 -68,7.4 -85.5,-22.6 l -254.7,-437.7 c -17.3,-29.9 -7.2,-68.1 22.7,-85.6"
         style="fill:#000000;fill-opacity:1;fill-rule:nonzero;stroke:none"
         id="path98" />
      <path
         d="m 14577.9,30333.6 v 0 c -98.5,0 -178.4,-79.8 -178.4,-178.3 v -3028.5 c 0,-98.5 79.9,-178.3 178.4,-178.3 v 0 c 98.4,0 178.3,79.8 178.3,178.3 v 3028.5 c 0,98.5 -79.9,178.3 -178.3,178.3"
         style="fill:#000000;fill-opacity:1;fill-rule:nonzero;stroke:none"
         id="path100" />
      <path
         d="m 14578.7,30624.4 c 130,0 233.6,105.3 233.6,235.3 -4.9,125 -106.9,225.3 -233.6,225.3 -130,0 -235.3,-105.2 -235.3,-233.6 5,-126.6 108.6,-227 235.3,-227"
         style="fill:#000000;fill-opacity:1;fill-rule:nonzero;stroke:none"
         id="path102" />
      <path
         d="m 8719.15,29113.7 c 1241.18,0 2250.85,-1009.2 2250.85,-2249.8 0,-1241.1 -1009.67,-2250.8 -2250.85,-2250.8 -1241.11,0 -2250.84,1009.7 -2250.84,2250.8 0,1240.6 1009.73,2249.8 2250.84,2249.8 z m 0,-4625.7 c 1310.15,0 2376.05,1065.8 2376.05,2375.9 0,1309.6 -1065.9,2375 -2376.05,2375 -1310.11,0 -2375.98,-1065.4 -2375.98,-2375 0,-1310.1 1065.87,-2375.9 2375.98,-2375.9"
         style="fill:#000000;fill-opacity:1;fill-rule:nonzero;stroke:none"
         id="path104" />
      <path
         d="m 7414.12,27344.3 c 720.92,721.2 1888.63,721.4 2610.08,-0.1 24.5,-24.4 64.1,-24.4 88.5,0 24.5,24.5 24.5,64 0,88.5 -769.8,769.8 -2016.84,770.7 -2787.06,0.1 -24.44,-24.4 -24.44,-64 0,-88.5 24.45,-24.4 64.04,-24.4 88.48,0"
         style="fill:#000000;fill-opacity:1;fill-rule:nonzero;stroke:none"
         id="path106" />
      <path
         d="m 7663.54,27094.9 c -24.44,-24.5 -24.44,-64.1 0,-88.5 24.44,-24.5 64.04,-24.5 88.48,0 534.14,534.4 1399.73,534.5 1934.2,-0.1 24.44,-24.4 64.03,-24.4 88.48,0 24.44,24.5 24.44,64.1 0,88.5 -583.04,583.3 -1527.87,583.6 -2111.16,0.1"
         style="fill:#000000;fill-opacity:1;fill-rule:nonzero;stroke:none"
         id="path108" />
      <path
         d="m 8001.44,26756.9 c -24.45,-24.4 -24.45,-64 0,-88.5 24.44,-24.4 64.04,-24.4 88.47,0 347.76,347.8 910.57,347.7 1258.29,0 24.45,-24.4 64.04,-24.4 88.48,0 24.44,24.5 24.44,64.1 0,88.5 -396.66,396.7 -1038.58,396.6 -1435.24,0"
         style="fill:#000000;fill-opacity:1;fill-rule:nonzero;stroke:none"
         id="path110" />
      <path
         d="m 8447.18,26491.1 c -149.65,-150.5 -149.65,-394.3 0,-544 148.26,-150.2 394.72,-151.2 543.99,0 149.66,149.7 149.66,393.5 0,544 -149.64,149.7 -394.34,149.7 -543.99,0"
         style="fill:#000000;fill-opacity:1;fill-rule:nonzero;stroke:none"
         id="path112" />
      <path
         d="m 39836.4,29483.4 c -25.7,23 -65.1,20.8 -88.4,-4.8 -23.1,-25.7 -20.9,-65.3 4.8,-88.4 l 189.9,-170.4 c 25.7,-23 65.2,-20.9 88.4,4.8 23.1,25.7 20.9,65.3 -4.8,88.3 l -189.9,170.5"
         style="fill:#000000;fill-opacity:1;fill-rule:nonzero;stroke:none"
         id="path114" />
      <path
         d="m 34574,33889.4 189.9,170.4 c 25.6,23.1 27.8,62.7 4.7,88.4 -23.1,25.8 -62.6,27.9 -88.3,4.7 l -189.9,-170.4 c -25.7,-23.1 -27.9,-62.7 -4.8,-88.4 23.1,-25.7 62.6,-27.8 88.4,-4.7"
         style="fill:#000000;fill-opacity:1;fill-rule:nonzero;stroke:none"
         id="path116" />
      <path
         d="m 37319,27601.2 c 0,-146.1 118.5,-264.6 264.6,-264.6 146,0 264.3,118.5 264.3,264.6 0,146.1 -118.3,264.2 -264.3,264.2 -146.1,0 -264.6,-118.1 -264.6,-264.2"
         style="fill:#000000;fill-opacity:1;fill-rule:nonzero;stroke:none"
         id="path118" />
      <path
         d="m 32508.2,29813.4 c 191.6,158.5 399.4,295.1 617.8,406.1 30.8,15.6 43.1,53.3 27.3,84.1 -15.5,30.8 -53.4,42.8 -84,27.4 -226.6,-115.1 -442.2,-256.8 -640.8,-421.2 -26.6,-22.1 -30.4,-61.5 -8.3,-88.1 22,-26.7 61.6,-30.3 88,-8.3"
         style="fill:#000000;fill-opacity:1;fill-rule:nonzero;stroke:none"
         id="path120" />
      <path
         d="m 39774.7,32357.7 c 146.1,0 264.6,118.5 264.6,264.6 0,146 -118.5,264.2 -264.6,264.2 -146,0 -264.2,-118.2 -264.2,-264.2 0,-146.1 118.2,-264.6 264.2,-264.6"
         style="fill:#000000;fill-opacity:1;fill-rule:nonzero;stroke:none"
         id="path122" />
      <path
         d="m 43517,27269 c 218.2,-110.9 426.1,-247.5 617.7,-406 26.2,-21.8 65.6,-18.7 88.1,8.3 22,26.6 18.2,66.1 -8.4,88.1 -198.7,164.4 -414.3,306 -640.7,421.2 -30.6,15.5 -68.6,3.3 -84.1,-27.5 -15.8,-30.8 -3.4,-68.5 27.4,-84.1"
         style="fill:#000000;fill-opacity:1;fill-rule:nonzero;stroke:none"
         id="path124" />
      <path
         d="m 7900.74,24165.1 -189.91,-170.4 c -25.72,-23.1 -27.86,-62.6 -4.77,-88.4 23.2,-25.8 62.9,-27.7 88.36,-4.7 l 189.91,170.4 c 25.72,23 27.86,62.6 4.76,88.3 -23.15,25.8 -62.74,28 -88.35,4.8"
         style="fill:#000000;fill-opacity:1;fill-rule:nonzero;stroke:none"
         id="path126" />
      <path
         d="m 13485.4,32066.5 c 25.7,-23 65.3,-20.9 88.4,4.8 23.1,25.7 20.9,65.3 -4.8,88.4 l -189.8,170.4 c -25.7,23.1 -65.2,20.9 -88.4,-4.7 -23.1,-25.8 -21,-65.3 4.8,-88.4 l 189.8,-170.5"
         style="fill:#000000;fill-opacity:1;fill-rule:nonzero;stroke:none"
         id="path128" />
      <path
         d="m 10153.5,22547.2 c -146,0 -264.22,-118.2 -264.22,-264.3 0,-146 118.22,-264.6 264.22,-264.6 146.1,0 264.6,118.6 264.6,264.6 0,146.1 -118.5,264.3 -264.6,264.3"
         style="fill:#000000;fill-opacity:1;fill-rule:nonzero;stroke:none"
         id="path130" />
      <path
         d="m 8284.63,30534.8 c 146.06,0 264.25,118.6 264.25,264.6 0,146.1 -118.19,264.3 -264.25,264.3 -146.07,0 -264.6,-118.2 -264.6,-264.3 0,-146 118.53,-264.6 264.6,-264.6"
         style="fill:#000000;fill-opacity:1;fill-rule:nonzero;stroke:none"
         id="path132" />
      <path
         d="m 4220.16,21950.7 c 30.8,15.7 43.07,53.3 27.43,84.2 -15.71,30.8 -53.34,43 -84.13,27.4 -226.58,-115 -442.21,-256.8 -640.79,-421.3 -26.64,-22 -30.31,-61.5 -8.31,-88.1 22.02,-26.5 61.32,-30.4 88.11,-8.2 191.49,158.5 399.31,295.1 617.69,406"
         style="fill:#000000;fill-opacity:1;fill-rule:nonzero;stroke:none"
         id="path134" />
      <path
         d="m 11733,27529.1 c 218.3,-110.9 426.1,-247.5 617.7,-406 26.5,-22 66,-18.4 88.1,8.3 22,26.6 18.3,66 -8.3,88.1 -198.7,164.4 -414.3,306.1 -640.8,421.2 -31,15.6 -68.6,3.3 -84.2,-27.5 -15.6,-30.7 -3.3,-68.4 27.5,-84.1"
         style="fill:#000000;fill-opacity:1;fill-rule:nonzero;stroke:none"
         id="path136" />
      <path
         d="m 36852.6,15026.1 c 146.1,0 264.2,118.5 264.2,264.6 0,146.1 -118.1,264.3 -264.2,264.3 -146.1,0 -264.6,-118.2 -264.6,-264.3 0,-146.1 118.5,-264.6 264.6,-264.6"
         style="fill:#000000;fill-opacity:1;fill-rule:nonzero;stroke:none"
         id="path138" />
      <path
         d="m 32338.2,18020.4 c -226.4,-115 -442,-256.6 -640.7,-421 -26.6,-22.1 -30.4,-61.4 -8.4,-88.1 22.1,-26.7 61.4,-30.3 88.1,-8.4 191.7,158.6 399.5,295.2 617.7,406.1 30.8,15.6 43.2,53.3 27.4,84.1 -15.5,30.7 -53.4,43 -84.1,27.3"
         style="fill:#000000;fill-opacity:1;fill-rule:nonzero;stroke:none"
         id="path140" />
      <path
         d="m 33323.6,20340.9 -189.9,-170.5 c -25.7,-23.1 -27.9,-62.7 -4.8,-88.4 22.9,-25.6 62.6,-27.9 88.3,-4.7 l 190,170.4 c 25.6,23.1 27.8,62.7 4.7,88.4 -23.1,26 -62.7,27.9 -88.3,4.8"
         style="fill:#000000;fill-opacity:1;fill-rule:nonzero;stroke:none"
         id="path142" />
      <path
         d="m 12949.2,9904.4 c -146.1,0 -264.6,-118.2 -264.6,-264.2 0,-146.1 118.5,-264.6 264.6,-264.6 146,0 264.2,118.5 264.2,264.6 0,146 -118.2,264.2 -264.2,264.2"
         style="fill:#000000;fill-opacity:1;fill-rule:nonzero;stroke:none"
         id="path144" />
      <path
         d="m 3987.54,15792.3 c 22.02,-26.5 61.32,-30.4 88.11,-8.2 191.13,158.2 398.94,294.8 617.69,406.1 30.79,15.6 43.08,53.2 27.43,84 -15.7,31 -53.28,43.2 -84.14,27.4 -226.99,-115.4 -442.57,-257.1 -640.78,-421.2 -26.64,-22 -30.3,-61.5 -8.31,-88.1"
         style="fill:#000000;fill-opacity:1;fill-rule:nonzero;stroke:none"
         id="path146" />
      <path
         d="m 5515.6,18358.3 189.91,170.5 c 25.72,23.1 27.86,62.7 4.76,88.4 -23.22,25.9 -62.82,27.9 -88.36,4.7 l -189.9,-170.5 c -25.73,-23.1 -27.87,-62.7 -4.76,-88.3 23,-25.7 62.79,-27.8 88.35,-4.8"
         style="fill:#000000;fill-opacity:1;fill-rule:nonzero;stroke:none"
         id="path148" />
      <path
         d="m 23031.3,18796.6 c 0,-34.6 28,-62.6 62.6,-62.6 h 3812.2 c 34.6,0 62.5,28 62.5,62.6 0,34.5 -27.9,62.5 -62.5,62.5 h -3812.2 c -34.6,0 -62.6,-28 -62.6,-62.5"
         style="fill:#000000;fill-opacity:1;fill-rule:nonzero;stroke:none"
         id="path150" />
    </g>
  </g>
</svg>
